NB.ufo
<glyph name="dollar" format="1">
  <advance width="541"/>
  <unicode hex="0024"/>
  <outline>
    <contour>
      <point x="454" y="536" type="curve" smooth="no"/>
      <point x="407" y="546" type="line" smooth="no"/>
      <point x="377" y="662" type="line" smooth="yes"/>
      <point x="374" y="672"/>
      <point x="346" y="697"/>
      <point x="310" y="709" type="curve" smooth="no"/>
      <point x="310" y="442" type="line" smooth="no"/>
      <point x="406" y="385"/>
      <point x="515" y="328"/>
      <point x="515" y="214" type="curve" smooth="yes"/>
      <point x="515" y="93"/>
      <point x="417" y="12"/>
      <point x="301" y="-9" type="curve" smooth="no"/>
      <point x="301" y="-67" type="line" smooth="no"/>
      <point x="241" y="-67" type="line" smooth="no"/>
      <point x="241" y="-15" type="line" smooth="no"/>
      <point x="238" y="-15" type="line" smooth="yes"/>
      <point x="150" y="-15"/>
      <point x="79" y="18"/>
      <point x="31" y="74" type="curve" smooth="no"/>
      <point x="39" y="236" type="line" smooth="no"/>
      <point x="89" y="228" type="line" smooth="no"/>
      <point x="120" y="113" type="line" smooth="no"/>
      <point x="147" y="74"/>
      <point x="195" y="47"/>
      <point x="242" y="45" type="curve" smooth="no"/>
      <point x="242" y="319" type="line" smooth="no"/>
      <point x="150" y="372"/>
      <point x="53" y="442"/>
      <point x="53" y="563" type="curve" smooth="yes"/>
      <point x="53" y="690"/>
      <point x="144" y="755"/>
      <point x="249" y="767" type="curve" smooth="no"/>
      <point x="249" y="813" type="line" smooth="no"/>
      <point x="309" y="813" type="line" smooth="no"/>
      <point x="309" y="768" type="line" smooth="no"/>
      <point x="358" y="764"/>
      <point x="417" y="748"/>
      <point x="464" y="706" type="curve" smooth="no"/>
      <point x="464" y="701"/>
      <point x="454" y="536"/>
    </contour>
    <contour>
      <point x="250" y="473" type="curve" smooth="no"/>
      <point x="250" y="716" type="line" smooth="no"/>
      <point x="199" y="710"/>
      <point x="165" y="678"/>
      <point x="165" y="607" type="curve" smooth="yes"/>
      <point x="165" y="551"/>
      <point x="195" y="501"/>
    </contour>
    <contour>
      <point x="302" y="299" type="curve" smooth="no"/>
      <point x="302" y="52" type="line" smooth="no"/>
      <point x="353" y="65"/>
      <point x="401" y="101"/>
      <point x="401" y="176" type="curve" smooth="yes"/>
      <point x="401" y="222"/>
      <point x="358" y="265"/>
    </contour>
  </outline>
</glyph>
<glyph name="quotesingle" format="1">
  <advance width="231"/>
  <unicode hex="0027"/>
  <outline>
    <contour>
      <point x="60" y="789" type="line" smooth="no"/>
      <point x="68" y="790"/>
      <point x="75" y="790"/>
      <point x="83" y="790" type="curve" smooth="yes"/>
      <point x="112" y="790"/>
      <point x="142" y="786"/>
      <point x="171" y="779" type="curve" smooth="no"/>
      <point x="149" y="547" type="line" smooth="no"/>
      <point x="134" y="542"/>
      <point x="121" y="540"/>
      <point x="104" y="540" type="curve" smooth="yes"/>
      <point x="92" y="540" type="line" smooth="no"/>
    </contour>
  </outline>
</glyph>
<glyph name="plus" format="1">
  <advance width="345"/>
  <unicode hex="002b"/>
  <outline>
    <contour>
      <point x="205" y="248" type="line" smooth="no"/>
      <point x="206" y="125" type="line" smooth="no"/>
      <point x="139" y="132" type="line" smooth="no"/>
      <point x="139" y="248" type="line" smooth="no"/>
      <point x="25" y="248" type="line" smooth="no"/>
      <point x="32" y="309" type="line" smooth="no"/>
      <point x="139" y="309" type="line" smooth="no"/>
      <point x="139" y="429" type="line" smooth="no"/>
      <point x="204" y="422" type="line" smooth="no"/>
      <point x="205" y="309" type="line" smooth="no"/>
      <point x="318" y="309" type="line" smooth="no"/>
      <point x="311" y="248" type="line" smooth="no"/>
    </contour>
  </outline>
</glyph>
<glyph name="slash" format="1">
  <advance width="332"/>
  <unicode hex="002f"/>
  <outline>
    <contour>
      <point x="266" y="748" type="line" smooth="no"/>
      <point x="346" y="753" type="line" smooth="no"/>
      <point x="64" y="-215" type="line" smooth="no"/>
      <point x="-14" y="-220" type="line" smooth="no"/>
    </contour>
  </outline>
</glyph>
<glyph name="nine" format="1">
  <advance width="450"/>
  <unicode hex="0039"/>
  <outline>
    <contour>
      <point x="322" y="204" type="curve" smooth="no"/>
      <point x="314" y="204" type="line" smooth="no"/>
      <point x="284" y="163"/>
      <point x="231" y="139"/>
      <point x="178" y="139" type="curve" smooth="yes"/>
      <point x="60" y="139"/>
      <point x="3" y="237"/>
      <point x="3" y="347" type="curve" smooth="yes"/>
      <point x="3" y="471"/>
      <point x="108" y="574"/>
      <point x="224" y="574" type="curve" smooth="yes"/>
      <point x="383" y="574"/>
      <point x="438" y="448"/>
      <point x="438" y="306" type="curve" smooth="yes"/>
      <point x="438" y="103"/>
      <point x="282" y="-92"/>
      <point x="82" y="-156" type="curve" smooth="no"/>
      <point x="68" y="-111" type="line" smooth="no"/>
      <point x="245" y="-36"/>
      <point x="298" y="84"/>
    </contour>
    <contour>
      <point x="219" y="525" type="curve" smooth="yes"/>
      <point x="146" y="525"/>
      <point x="109" y="456"/>
      <point x="109" y="363" type="curve" smooth="yes"/>
      <point x="109" y="281"/>
      <point x="136" y="204"/>
      <point x="222" y="204" type="curve" smooth="yes"/>
      <point x="264" y="204"/>
      <point x="306" y="226"/>
      <point x="325" y="257" type="curve" smooth="no"/>
      <point x="330" y="285"/>
      <point x="330" y="307"/>
      <point x="330" y="332" type="curve" smooth="yes"/>
      <point x="330" y="431"/>
      <point x="289" y="525"/>
    </contour>
  </outline>
</glyph>
<glyph name="equal" format="1">
  <advance width="415"/>
  <unicode hex="003d"/>
  <outline>
    <contour>
      <point x="41" y="257" type="line" smooth="no"/>
      <point x="373" y="257" type="line" smooth="no"/>
      <point x="366" y="193" type="line" smooth="no"/>
      <point x="34" y="193" type="line" smooth="no"/>
    </contour>
    <contour>
      <point x="43" y="402" type="line" smooth="no"/>
      <point x="375" y="402" type="line" smooth="no"/>
      <point x="368" y="338" type="line" smooth="no"/>
      <point x="36" y="338" type="line" smooth="no"/>
    </contour>
  </outline>
</glyph>
<glyph name="B" format="1">
  <advance width="683"/>
  <unicode hex="0042"/>
  <outline>
    <contour>
      <point x="373" y="366" type="curve" smooth="yes"/>
      <point x="238" y="366" type="line" smooth="no"/>
      <point x="238" y="58" type="line" smooth="no"/>
      <point x="371" y="58" type="line" smooth="yes"/>
      <point x="476" y="58"/>
      <point x="531" y="132"/>
      <point x="531" y="210" type="curve" smooth="yes"/>
      <point x="531" y="285"/>
      <point x="479" y="366"/>
    </contour>
    <contour>
      <point x="462" y="412" type="curve" smooth="no"/>
      <point x="462" y="407" type="line" smooth="no"/>
      <point x="586" y="400"/>
      <point x="650" y="310"/>
      <point x="650" y="230" type="curve" smooth="yes"/>
      <point x="650" y="116"/>
      <point x="571" y="0"/>
      <point x="327" y="0" type="curve" smooth="yes"/>
      <point x="14" y="0" type="line" smooth="no"/>
      <point x="20" y="45" type="line" smooth="no"/>
      <point x="122" y="73" type="line" smooth="no"/>
      <point x="122" y="669" type="line" smooth="no"/>
      <point x="18" y="687" type="line" smooth="no"/>
      <point x="24" y="733" type="line" smooth="no"/>
      <point x="112" y="746"/>
      <point x="215" y="761"/>
      <point x="322" y="761" type="curve" smooth="yes"/>
      <point x="510" y="761"/>
      <point x="587" y="676"/>
      <point x="587" y="585" type="curve" smooth="yes"/>
      <point x="587" y="522"/>
      <point x="557" y="447"/>
    </contour>
    <contour>
      <point x="238" y="705" type="curve" smooth="no"/>
      <point x="238" y="417" type="line" smooth="no"/>
      <point x="394" y="417" type="line" smooth="no"/>
      <point x="446" y="439"/>
      <point x="473" y="481.993"/>
      <point x="473" y="551" type="curve" smooth="yes"/>
      <point x="473" y="626"/>
      <point x="433" y="709"/>
      <point x="286" y="709" type="curve" smooth="yes"/>
      <point x="271" y="709"/>
      <point x="254" y="708"/>
    </contour>
  </outline>
</glyph>
<glyph name="C" format="1">
  <advance width="673"/>
  <unicode hex="0043"/>
  <outline>
    <contour>
      <point x="160" y="399" type="curve" smooth="yes"/>
      <point x="160" y="181.963"/>
      <point x="291" y="67"/>
      <point x="435" y="67" type="curve" smooth="yes"/>
      <point x="516.056" y="67"/>
      <point x="594" y="110"/>
      <point x="646" y="158" type="curve" smooth="no"/>
      <point x="668" y="112" type="line" smooth="no"/>
      <point x="620" y="54"/>
      <point x="514.004" y="-15"/>
      <point x="388" y="-15" type="curve" smooth="yes"/>
      <point x="202" y="-15"/>
      <point x="30" y="115"/>
      <point x="30" y="357" type="curve" smooth="yes"/>
      <point x="30" y="536"/>
      <point x="143" y="769"/>
      <point x="420" y="769" type="curve" smooth="yes"/>
      <point x="500" y="769"/>
      <point x="581" y="752"/>
      <point x="639" y="708" type="curve" smooth="no"/>
      <point x="620" y="507" type="line" smooth="no"/>
      <point x="567" y="515" type="line" smooth="no"/>
      <point x="542" y="648" type="line" smooth="no"/>
      <point x="514" y="684"/>
      <point x="463" y="711"/>
      <point x="385" y="711" type="curve" smooth="yes"/>
      <point x="259" y="711"/>
      <point x="160" y="594"/>
    </contour>
  </outline>
</glyph>
<glyph name="D" format="1">
  <advance width="802"/>
  <unicode hex="0044"/>
  <outline>
    <contour>
      <point x="239" y="697" type="curve" smooth="no"/>
      <point x="239" y="63" type="line" smooth="no"/>
      <point x="327" y="63" type="line" smooth="yes"/>
      <point x="542" y="63"/>
      <point x="644" y="200"/>
      <point x="644" y="362" type="curve" smooth="yes"/>
      <point x="644" y="548"/>
      <point x="536" y="700"/>
      <point x="313" y="700" type="curve" smooth="yes"/>
      <point x="288" y="700"/>
      <point x="264" y="700"/>
    </contour>
    <contour>
      <point x="772" y="396" type="curve" smooth="yes"/>
      <point x="772" y="188.913"/>
      <point x="620" y="0"/>
      <point x="310" y="0" type="curve" smooth="yes"/>
      <point x="11" y="0" type="line" smooth="no"/>
      <point x="19" y="45" type="line" smooth="no"/>
      <point x="123" y="78" type="line" smooth="no"/>
      <point x="123" y="668" type="line" smooth="no"/>
      <point x="19" y="686" type="line" smooth="no"/>
      <point x="24" y="732" type="line" smooth="no"/>
      <point x="143" y="751"/>
      <point x="247" y="762"/>
      <point x="335" y="762" type="curve" smooth="yes"/>
      <point x="675" y="762"/>
      <point x="772" y="583"/>
    </contour>
  </outline>
</glyph>
<glyph name="G" format="1">
  <advance width="773"/>
  <unicode hex="0047"/>
  <outline>
    <contour>
      <point x="684" y="704" type="curve" smooth="no"/>
      <point x="669" y="509" type="line" smooth="no"/>
      <point x="616" y="518" type="line" smooth="no"/>
      <point x="594" y="634" type="line" smooth="no"/>
      <point x="566" y="662"/>
      <point x="493.047" y="703"/>
      <point x="398" y="703" type="curve" smooth="yes"/>
      <point x="279" y="703"/>
      <point x="161" y="614.002"/>
      <point x="161" y="392" type="curve" smooth="yes"/>
      <point x="161" y="212"/>
      <point x="268" y="47"/>
      <point x="460" y="47" type="curve" smooth="yes"/>
      <point x="509" y="47"/>
      <point x="548" y="62"/>
      <point x="565" y="72" type="curve" smooth="no"/>
      <point x="565" y="263" type="line" smooth="no"/>
      <point x="422" y="286" type="line" smooth="no"/>
      <point x="429" y="336" type="line" smooth="no"/>
      <point x="766" y="336" type="line" smooth="no"/>
      <point x="759" y="291" type="line" smooth="no"/>
      <point x="684" y="266" type="line" smooth="no"/>
      <point x="684" y="48" type="line" smooth="no"/>
      <point x="604" y="0"/>
      <point x="513.004" y="-19"/>
      <point x="392" y="-19" type="curve" smooth="yes"/>
      <point x="148" y="-19"/>
      <point x="30" y="143.99"/>
      <point x="30" y="350" type="curve" smooth="yes"/>
      <point x="30" y="610"/>
      <point x="227" y="763"/>
      <point x="428" y="763" type="curve" smooth="yes"/>
      <point x="535.042" y="763"/>
      <point x="624" y="740"/>
    </contour>
  </outline>
</glyph>
<glyph name="I" format="1">
  <advance width="364"/>
  <unicode hex="0049"/>
  <outline>
    <contour>
      <point x="346" y="0" type="line" smooth="no"/>
      <point x="19" y="0" type="line" smooth="no"/>
      <point x="24" y="45" type="line" smooth="no"/>
      <point x="125" y="73" type="line" smooth="no"/>
      <point x="125" y="682" type="line" smooth="no"/>
      <point x="15" y="707" type="line" smooth="no"/>
      <point x="21" y="753" type="line" smooth="no"/>
      <point x="351" y="753" type="line" smooth="no"/>
      <point x="345" y="707" type="line" smooth="no"/>
      <point x="242" y="684" type="line" smooth="no"/>
      <point x="242" y="69" type="line" smooth="no"/>
      <point x="352" y="49" type="line" smooth="no"/>
    </contour>
  </outline>
</glyph>
<glyph name="S" format="1">
  <advance width="523"/>
  <unicode hex="0053"/>
  <outline>
    <contour>
      <point x="435" y="537" type="curve" smooth="no"/>
      <point x="375" y="544" type="line" smooth="no"/>
      <point x="359" y="660" type="line" smooth="no"/>
      <point x="348" y="682"/>
      <point x="306.254" y="717"/>
      <point x="257" y="717" type="curve" smooth="yes"/>
      <point x="196" y="717"/>
      <point x="146" y="682"/>
      <point x="146" y="603" type="curve" smooth="yes"/>
      <point x="146" y="429"/>
      <point x="500" y="442"/>
      <point x="500" y="214" type="curve" smooth="yes"/>
      <point x="500" y="75"/>
      <point x="369" y="-15"/>
      <point x="231" y="-15" type="curve" smooth="yes"/>
      <point x="144" y="-15"/>
      <point x="66" y="26"/>
      <point x="27" y="74" type="curve" smooth="no"/>
      <point x="35" y="236" type="line" smooth="no"/>
      <point x="97" y="227" type="line" smooth="no"/>
      <point x="120" y="113" type="line" smooth="no"/>
      <point x="142" y="78"/>
      <point x="187.991" y="47"/>
      <point x="245" y="47" type="curve" smooth="yes"/>
      <point x="309" y="47"/>
      <point x="389" y="84"/>
      <point x="389" y="174" type="curve" smooth="yes"/>
      <point x="389" y="331"/>
      <point x="42" y="330"/>
      <point x="42" y="555" type="curve" smooth="yes"/>
      <point x="42" y="692"/>
      <point x="158" y="769"/>
      <point x="277" y="769" type="curve" smooth="yes"/>
      <point x="342.192" y="769"/>
      <point x="400" y="748"/>
      <point x="448" y="708" type="curve" smooth="no"/>
      <point x="448" y="703"/>
      <point x="435" y="537"/>
    </contour>
  </outline>
</glyph>
<glyph name="Y" format="1">
  <advance width="733"/>
  <unicode hex="0059"/>
  <outline>
    <contour>
      <point x="433" y="320" type="line" smooth="no"/>
      <point x="433" y="69" type="line" smooth="no"/>
      <point x="532" y="49" type="line" smooth="no"/>
      <point x="526" y="0" type="line" smooth="no"/>
      <point x="219" y="0" type="line" smooth="no"/>
      <point x="225" y="45" type="line" smooth="no"/>
      <point x="316" y="73" type="line" smooth="no"/>
      <point x="316" y="306" type="line" smooth="no"/>
      <point x="102" y="682" type="line" smooth="no"/>
      <point x="19" y="707" type="line" smooth="no"/>
      <point x="27" y="753" type="line" smooth="no"/>
      <point x="334" y="753" type="line" smooth="no"/>
      <point x="327" y="707" type="line" smooth="no"/>
      <point x="231" y="684" type="line" smooth="no"/>
      <point x="399" y="388" type="line" smooth="no"/>
      <point x="559" y="682" type="line" smooth="no"/>
      <point x="448" y="707" type="line" smooth="no"/>
      <point x="454" y="753" type="line" smooth="no"/>
      <point x="723" y="753" type="line" smooth="no"/>
      <point x="717" y="707" type="line" smooth="no"/>
      <point x="642" y="684" type="line" smooth="no"/>
    </contour>
  </outline>
</glyph>
<glyph name="bracketright" format="1">
  <advance width="345"/>
  <unicode hex="005d"/>
  <outline>
    <contour>
      <point x="70" y="-227" type="line" smooth="no"/>
      <point x="70" y="-159" type="line" smooth="no"/>
      <point x="146" y="-157" type="line" smooth="no"/>
      <point x="146" y="696" type="line" smooth="no"/>
      <point x="67" y="698" type="line" smooth="no"/>
      <point x="67" y="760" type="line" smooth="no"/>
      <point x="208" y="760" type="line" smooth="no"/>
      <point x="225" y="747" type="line" smooth="no"/>
      <point x="226" y="-214" type="line" smooth="no"/>
      <point x="212" y="-227" type="line" smooth="no"/>
    </contour>
  </outline>
</glyph>
<glyph name="a" format="1">
  <advance width="533"/>
  <unicode hex="0061"/>
  <outline>
    <contour>
      <point x="219" y="261" type="line" smooth="no"/>
      <point x="187" y="251"/>
      <point x="146" y="231"/>
      <point x="146" y="170" type="curve" smooth="yes"/>
      <point x="146" y="117"/>
      <point x="169" y="108"/>
      <point x="186" y="108" type="curve" smooth="yes"/>
      <point x="201.033" y="108"/>
      <point x="213" y="111"/>
      <point x="219" y="122" type="curve" smooth="no"/>
    </contour>
    <contour>
      <point x="349" y="-19" type="curve" smooth="yes"/>
      <point x="271.993" y="-19"/>
      <point x="237.838" y="21.973"/>
      <point x="231" y="63" type="curve" smooth="yes"/>
      <point x="230" y="69" type="line" smooth="no"/>
      <point x="224" y="69" type="line" smooth="no"/>
      <point x="206" y="26"/>
      <point x="168.867" y="-15"/>
      <point x="71" y="-15" type="curve" smooth="yes"/>
      <point x="-16.0517" y="-15"/>
      <point x="-58" y="59.9714"/>
      <point x="-58" y="130" type="curve" smooth="yes"/>
      <point x="-58" y="252.017"/>
      <point x="42" y="330"/>
      <point x="219" y="318" type="curve" smooth="no"/>
      <point x="219" y="356" type="line" smooth="yes"/>
      <point x="219" y="414"/>
      <point x="200" y="464"/>
      <point x="158" y="464" type="curve" smooth="yes"/>
      <point x="109.958" y="464"/>
      <point x="84" y="394"/>
      <point x="60" y="324" type="curve" smooth="no"/>
      <point x="-12" y="330"/>
      <point x="-50" y="369.957"/>
      <point x="-50" y="416" type="curve" smooth="yes"/>
      <point x="-50" y="500.095"/>
      <point x="61.9883" y="564"/>
      <point x="234" y="564" type="curve" smooth="yes"/>
      <point x="356.262" y="564"/>
      <point x="418" y="504"/>
      <point x="418" y="359" type="curve" smooth="yes"/>
      <point x="418" y="182" type="line" smooth="yes"/>
      <point x="418" y="126"/>
      <point x="430.454" y="103.476"/>
      <point x="458" y="95" type="curve" smooth="yes"/>
      <point x="484" y="87" type="line" smooth="no"/>
      <point x="479" y="30" type="line" smooth="no"/>
      <point x="462" y="6"/>
      <point x="400.01" y="-19"/>
    </contour>
  </outline>
</glyph>
<glyph name="c" format="1">
  <advance width="486"/>
  <unicode hex="0063"/>
  <outline>
    <contour>
      <point x="326" y="51" type="curve" smooth="yes"/>
      <point x="386.009" y="51"/>
      <point x="433" y="74"/>
      <point x="462" y="92" type="curve" smooth="no"/>
      <point x="477" y="57" type="line" smooth="no"/>
      <point x="445" y="18"/>
      <point x="368.026" y="-18"/>
      <point x="290" y="-18" type="curve" smooth="yes"/>
      <point x="143.945" y="-18"/>
      <point x="51" y="107"/>
      <point x="51" y="252" type="curve" smooth="yes"/>
      <point x="51" y="432"/>
      <point x="177" y="545"/>
      <point x="308" y="545" type="curve" smooth="yes"/>
      <point x="409" y="545"/>
      <point x="454" y="500"/>
      <point x="454" y="452" type="curve" smooth="yes"/>
      <point x="454" y="416"/>
      <point x="428" y="393"/>
      <point x="377" y="389" type="curve" smooth="no"/>
      <point x="360" y="430"/>
      <point x="332.038" y="488"/>
      <point x="279" y="488" type="curve" smooth="yes"/>
      <point x="207" y="488"/>
      <point x="160" y="416"/>
      <point x="160" y="307" type="curve" smooth="yes"/>
      <point x="160" y="206"/>
      <point x="200" y="51"/>
    </contour>
  </outline>
</glyph>
<glyph name="f" format="1">
  <advance width="371"/>
  <unicode hex="0066"/>
  <outline>
    <contour>
      <point x="225" y="594" type="curve" smooth="yes"/>
      <point x="224" y="529" type="line" smooth="no"/>
      <point x="380" y="529" type="line" smooth="no"/>
      <point x="372" y="475" type="line" smooth="no"/>
      <point x="224" y="475" type="line" smooth="no"/>
      <point x="224" y="73" type="line" smooth="no"/>
      <point x="373" y="51" type="line" smooth="no"/>
      <point x="368" y="0" type="line" smooth="no"/>
      <point x="24" y="0" type="line" smooth="no"/>
      <point x="31" y="44" type="line" smooth="no"/>
      <point x="123" y="70" type="line" smooth="no"/>
      <point x="123" y="475" type="line" smooth="no"/>
      <point x="33" y="475" type="line" smooth="no"/>
      <point x="40" y="519" type="line" smooth="no"/>
      <point x="124" y="533" type="line" smooth="no"/>
      <point x="144" y="708"/>
      <point x="265" y="790"/>
      <point x="351" y="790" type="curve" smooth="yes"/>
      <point x="415" y="790"/>
      <point x="464" y="769"/>
      <point x="464" y="720" type="curve" smooth="yes"/>
      <point x="464" y="690"/>
      <point x="430" y="660"/>
      <point x="410" y="652" type="curve" smooth="no"/>
      <point x="386" y="682"/>
      <point x="342.21" y="726"/>
      <point x="304" y="726" type="curve" smooth="yes"/>
      <point x="259" y="726"/>
      <point x="228" y="698"/>
    </contour>
  </outline>
</glyph>
<glyph name="g" format="1">
  <advance width="534"/>
  <unicode hex="0067"/>
  <outline>
    <contour>
      <point x="152" y="368" type="curve" smooth="yes"/>
      <point x="152" y="284"/>
      <point x="207" y="230"/>
      <point x="251" y="230" type="curve" smooth="yes"/>
      <point x="305" y="230"/>
      <point x="339" y="265.977"/>
      <point x="339" y="351" type="curve" smooth="yes"/>
      <point x="339" y="416"/>
      <point x="306.125" y="498"/>
      <point x="242" y="498" type="curve" smooth="yes"/>
      <point x="180" y="498"/>
      <point x="152" y="447"/>
    </contour>
    <contour>
      <point x="277" y="91" type="curve" smooth="yes"/>
      <point x="343" y="91" type="line" smooth="yes"/>
      <point x="433" y="91"/>
      <point x="511" y="74"/>
      <point x="511" y="-31" type="curve" smooth="yes"/>
      <point x="511" y="-136"/>
      <point x="370" y="-234"/>
      <point x="232" y="-234" type="curve" smooth="yes"/>
      <point x="121" y="-234"/>
      <point x="13" y="-202"/>
      <point x="13" y="-98" type="curve" smooth="yes"/>
      <point x="13" y="-41.9911"/>
      <point x="80" y="-6"/>
      <point x="110" y="11" type="curve" smooth="no"/>
      <point x="110" y="16" type="line" smooth="no"/>
      <point x="72" y="34"/>
      <point x="52" y="63.7722"/>
      <point x="52" y="99" type="curve" smooth="yes"/>
      <point x="52" y="132.061"/>
      <point x="108" y="180"/>
      <point x="153" y="198" type="curve" smooth="no"/>
      <point x="153" y="203" type="line" smooth="no"/>
      <point x="122" y="211"/>
      <point x="54" y="275"/>
      <point x="54" y="357" type="curve" smooth="yes"/>
      <point x="54" y="457"/>
      <point x="154" y="543"/>
      <point x="256" y="543" type="curve" smooth="yes"/>
      <point x="312" y="543"/>
      <point x="353" y="527"/>
      <point x="384" y="505" type="curve" smooth="no"/>
      <point x="393" y="505"/>
      <point x="514" y="514"/>
      <point x="514" y="514" type="curve" smooth="no"/>
      <point x="526" y="500" type="line" smooth="no"/>
      <point x="503" y="433" type="line" smooth="no"/>
      <point x="493" y="433" type="line" smooth="no"/>
      <point x="418" y="457" type="line" smooth="no"/>
      <point x="418" y="447" type="line" smooth="no"/>
      <point x="426" y="430"/>
      <point x="439" y="394"/>
      <point x="439" y="363" type="curve" smooth="yes"/>
      <point x="439" y="251.982"/>
      <point x="326" y="183"/>
      <point x="234" y="183" type="curve" smooth="yes"/>
      <point x="210" y="183"/>
      <point x="187" y="187"/>
      <point x="180" y="189" type="curve" smooth="no"/>
      <point x="166" y="174"/>
      <point x="149" y="154"/>
      <point x="149" y="135" type="curve" smooth="yes"/>
      <point x="149" y="110"/>
      <point x="150" y="91"/>
    </contour>
    <contour>
      <point x="151" y="2" type="line" smooth="no"/>
      <point x="151" y="2"/>
      <point x="120" y="-9"/>
      <point x="120" y="-65" type="curve" smooth="yes"/>
      <point x="120" y="-146"/>
      <point x="187" y="-169"/>
      <point x="265" y="-169" type="curve" smooth="yes"/>
      <point x="344" y="-169"/>
      <point x="408" y="-141"/>
      <point x="408" y="-61" type="curve" smooth="yes"/>
      <point x="408" y="-7"/>
      <point x="365" y="2"/>
      <point x="256" y="2" type="curve" smooth="yes"/>
    </contour>
  </outline>
</glyph>
<glyph name="j" format="1">
  <advance width="347"/>
  <unicode hex="006a"/>
  <outline>
    <contour>
      <point x="109" y="104" type="curve" smooth="yes"/>
      <point x="109" y="443" type="line" smooth="no"/>
      <point x="18" y="476" type="line" smooth="no"/>
      <point x="27" y="524" type="line" smooth="no"/>
      <point x="196" y="537" type="line" smooth="no"/>
      <point x="211" y="522" type="line" smooth="no"/>
      <point x="211" y="91" type="line" smooth="yes"/>
      <point x="211" y="-80"/>
      <point x="124" y="-166"/>
      <point x="32" y="-217" type="curve" smooth="yes"/>
      <point x="5" y="-232" type="line" smooth="no"/>
      <point x="-25" y="-179" type="line" smooth="no"/>
      <point x="40" y="-130"/>
      <point x="109" y="-60"/>
    </contour>
    <contour>
      <point x="228" y="719" type="curve" smooth="yes"/>
      <point x="228" y="678"/>
      <point x="197" y="644"/>
      <point x="156" y="644" type="curve" smooth="yes"/>
      <point x="115" y="644"/>
      <point x="82" y="679"/>
      <point x="82" y="720" type="curve" smooth="yes"/>
      <point x="82" y="761"/>
      <point x="116" y="792"/>
      <point x="157" y="792" type="curve" smooth="yes"/>
      <point x="197" y="792"/>
      <point x="228" y="759"/>
    </contour>
  </outline>
</glyph>
<glyph name="l" format="1">
  <advance width="337"/>
  <unicode hex="006c"/>
  <outline>
    <contour>
      <point x="220" y="70" type="line" smooth="no"/>
      <point x="317" y="49" type="line" smooth="no"/>
      <point x="310" y="0" type="line" smooth="no"/>
      <point x="20" y="0" type="line" smooth="no"/>
      <point x="27" y="48" type="line" smooth="no"/>
      <point x="119" y="70" type="line" smooth="no"/>
      <point x="119" y="671" type="line" smooth="no"/>
      <point x="24" y="703" type="line" smooth="no"/>
      <point x="31" y="749" type="line" smooth="no"/>
      <point x="205" y="763" type="line" smooth="no"/>
      <point x="220" y="748" type="line" smooth="no"/>
    </contour>
  </outline>
</glyph>
<glyph name="q" format="1">
  <advance width="611"/>
  <unicode hex="0071"/>
  <outline>
    <contour>
      <point x="510" y="486" type="curve" smooth="no"/>
      <point x="510" y="-152" type="line" smooth="no"/>
      <point x="607" y="-173" type="line" smooth="no"/>
      <point x="600" y="-222" type="line" smooth="no"/>
      <point x="312" y="-222" type="line" smooth="no"/>
      <point x="318" y="-174" type="line" smooth="no"/>
      <point x="409" y="-152" type="line" smooth="no"/>
      <point x="409" y="425" type="line" smooth="no"/>
      <point x="385" y="454"/>
      <point x="348" y="485"/>
      <point x="287" y="485" type="curve" smooth="yes"/>
      <point x="213" y="485"/>
      <point x="156" y="410"/>
      <point x="156" y="287" type="curve" smooth="yes"/>
      <point x="156" y="143"/>
      <point x="212" y="63"/>
      <point x="288" y="63" type="curve" smooth="yes"/>
      <point x="317" y="63"/>
      <point x="341" y="68"/>
      <point x="371" y="86" type="curve" smooth="no"/>
      <point x="386" y="49" type="line" smooth="no"/>
      <point x="349" y="6"/>
      <point x="301" y="-13"/>
      <point x="248" y="-13" type="curve" smooth="yes"/>
      <point x="141" y="-13"/>
      <point x="50" y="70"/>
      <point x="50" y="250" type="curve" smooth="yes"/>
      <point x="50" y="415"/>
      <point x="190" y="546"/>
      <point x="317" y="546" type="curve" smooth="yes"/>
      <point x="438" y="546"/>
      <point x="486" y="503"/>
    </contour>
  </outline>
</glyph>
<glyph name="s" format="1">
  <advance width="422"/>
  <unicode hex="0073"/>
  <outline>
    <contour>
      <point x="304" y="107" type="curve" smooth="yes"/>
      <point x="304" y="194.092"/>
      <point x="44" y="217"/>
      <point x="44" y="385" type="curve" smooth="yes"/>
      <point x="44" y="455"/>
      <point x="104" y="546"/>
      <point x="225" y="546" type="curve" smooth="yes"/>
      <point x="321" y="546"/>
      <point x="368" y="494"/>
      <point x="368" y="449" type="curve" smooth="yes"/>
      <point x="368" y="419"/>
      <point x="338" y="385"/>
      <point x="294" y="381" type="curve" smooth="no"/>
      <point x="276" y="428"/>
      <point x="246.16" y="494"/>
      <point x="196" y="494" type="curve" smooth="yes"/>
      <point x="153" y="494"/>
      <point x="126" y="468"/>
      <point x="126" y="429" type="curve" smooth="yes"/>
      <point x="126" y="321.981"/>
      <point x="392" y="306"/>
      <point x="392" y="140" type="curve" smooth="yes"/>
      <point x="392" y="50"/>
      <point x="298" y="-21"/>
      <point x="205" y="-21" type="curve" smooth="yes"/>
      <point x="97" y="-21"/>
      <point x="30" y="30"/>
      <point x="30" y="85" type="curve" smooth="yes"/>
      <point x="30" y="126"/>
      <point x="74" y="152"/>
      <point x="110" y="155" type="curve" smooth="no"/>
      <point x="136" y="90"/>
      <point x="169.917" y="39"/>
      <point x="224" y="39" type="curve" smooth="yes"/>
      <point x="267" y="39"/>
      <point x="304" y="61.9556"/>
    </contour>
  </outline>
</glyph>
<glyph name="v" format="1">
  <advance width="561"/>
  <unicode hex="0076"/>
  <outline>
    <contour>
      <point x="242" y="-17" type="line" smooth="no"/>
      <point x="73" y="458" type="line" smooth="no"/>
      <point x="0" y="483" type="line" smooth="no"/>
      <point x="6" y="529" type="line" smooth="no"/>
      <point x="277" y="529" type="line" smooth="no"/>
      <point x="272" y="484" type="line" smooth="no"/>
      <point x="184" y="459" type="line" smooth="no"/>
      <point x="298" y="117" type="line" smooth="no"/>
      <point x="414" y="458" type="line" smooth="no"/>
      <point x="317" y="483" type="line" smooth="no"/>
      <point x="325" y="529" type="line" smooth="no"/>
      <point x="557" y="529" type="line" smooth="no"/>
      <point x="550" y="484" type="line" smooth="no"/>
      <point x="484" y="459" type="line" smooth="no"/>
      <point x="319" y="-6" type="line" smooth="no"/>
    </contour>
  </outline>
</glyph>
